<svg width="50" height="50" viewBox="0 0 50 50" fill="none" xmlns="http://www.w3.org/2000/svg">
<path fill-rule="evenodd" clip-rule="evenodd" d="M4.93738 0.000316318H28.186V8.73271C28.186 9.10081 28.4855 9.40028 28.8557 9.40028H37.588L37.586 44.4177C37.586 47.1317 35.3649 49.3528 32.6509 49.3528L4.93706 49.3548C2.22307 49.3548 0.00201851 47.1337 0.00201851 44.4198L-6.10352e-05 4.93714C-6.10352e-05 2.22106 2.22137 0.000316318 4.93738 0.000316318ZM45.8568 4.68792C47.7805 4.68792 49.3548 6.26222 49.3548 8.18593V10.6483H42.3586V8.18593C42.3586 6.26222 43.9331 4.68792 45.8568 4.68792ZM49.3548 11.9855V38.4329H42.3586V11.9855H49.3548ZM48.97 39.7703L46.2935 44.4142C46.1001 44.7511 45.6156 44.7511 45.4201 44.4142L42.7436 39.7703H48.97ZM29.5211 0.670446V8.06599H36.9166L29.5211 0.670446ZM7.73866 5.53065C6.1872 5.53065 4.91861 6.79925 4.91861 8.35071V12.5849C4.91861 14.1364 6.1872 15.405 7.73866 15.405H11.9729C13.5243 15.405 14.7929 14.1364 14.7929 12.5849V8.35071C14.7929 6.79925 13.5243 5.53065 11.9729 5.53065H7.73866ZM7.52653 20.7642C6.08741 20.7642 4.91864 21.9309 4.91864 23.3721C4.91864 24.8112 6.08533 25.98 7.52653 25.98C8.96772 25.98 10.1344 24.8133 10.1344 23.3721C10.1344 21.9309 8.96565 20.7642 7.52653 20.7642ZM7.52653 29.6861C6.08741 29.6861 4.91864 30.8528 4.91864 32.294C4.91864 33.7331 6.08533 34.9019 7.52653 34.9019C8.96772 34.9019 10.1344 33.7352 10.1344 32.294C10.1344 30.8549 8.96565 29.6861 7.52653 29.6861ZM7.52653 38.6101C6.08741 38.6101 4.91864 39.7768 4.91864 41.218C4.91864 42.6592 6.08533 43.8259 7.52653 43.8259C8.96772 43.8259 10.1344 42.6592 10.1344 41.218C10.1344 39.7768 8.96565 38.6101 7.52653 38.6101ZM13.8194 41.8856H32.6673C33.0354 41.8856 33.3349 41.5861 33.3349 41.216C33.3349 40.8479 33.0354 40.5484 32.6673 40.5484L13.8194 40.5505C13.4513 40.5505 13.1519 40.8499 13.1519 41.218C13.1519 41.5882 13.4513 41.8856 13.8194 41.8856ZM13.8194 32.9637H32.6673C33.0354 32.9637 33.3349 32.6642 33.3349 32.294C33.3349 31.9259 33.0354 31.6265 32.6673 31.6265H13.8194C13.4513 31.6265 13.1519 31.9259 13.1519 32.294C13.1519 32.6642 13.4513 32.9637 13.8194 32.9637ZM13.8194 24.0396H32.6673C33.0354 24.0396 33.3349 23.7402 33.3349 23.3721C33.3349 23.004 33.0354 22.7024 32.6673 22.7024H13.8194C13.4513 22.7024 13.1519 23.0019 13.1519 23.3721C13.1519 23.7402 13.4513 24.0396 13.8194 24.0396ZM17.9912 8.82689H23.7081C24.0762 8.82689 24.3757 8.52742 24.3757 8.15724C24.3757 7.78913 24.0762 7.48966 23.7081 7.48966L17.9912 7.49174C17.6231 7.49174 17.3237 7.79122 17.3237 8.15932C17.3237 8.52742 17.6211 8.82689 17.9912 8.82689ZM17.9912 13.4459H28.8282C29.1963 13.4459 29.4957 13.1464 29.4957 12.7762C29.4957 12.4081 29.1963 12.1086 28.8282 12.1086H17.9912C17.6231 12.1086 17.3237 12.4081 17.3237 12.7762C17.3237 13.1464 17.6211 13.4459 17.9912 13.4459Z" fill="white"/>
</svg>
