<svg width="50" height="44" viewBox="0 0 50 44" fill="none" xmlns="http://www.w3.org/2000/svg">
<path d="M25.2888 8.11249C24.9332 7.81472 24.4212 7.81472 24.0656 8.11249L6.62791 22.75C6.41369 22.9321 6.28943 23.1977 6.28943 23.4783L6.28729 42.2568C6.28729 42.7817 6.71359 43.208 7.23845 43.208H19.327C19.8518 43.208 20.2781 42.7817 20.2781 42.2568L20.2803 33.2855C20.2803 30.8605 22.2533 28.8854 24.6803 28.8854C27.1053 28.8854 29.0804 30.8584 29.0804 33.2855L29.0783 42.2568C29.0783 42.7817 29.5046 43.208 30.0294 43.208H42.1179C42.6428 43.208 43.0691 42.7817 43.0691 42.2568L43.067 23.4783C43.067 23.1956 42.9427 22.9299 42.7285 22.75L25.2888 8.11249Z" fill="white"/>
<path d="M49.0286 20.1391L41.9317 13.7381V4.85664C41.9317 4.3318 41.5054 3.90549 40.9806 3.90549H37.5552C37.0303 3.90549 36.604 4.33179 36.604 4.85664V9.71733L25.2865 0.223326C24.9331 -0.074442 24.4211 -0.074442 24.0676 0.223326L0.334248 20.1332C0.12003 20.3131 6.10352e-05 20.5788 6.10352e-05 20.8615C6.10352e-05 21.1315 0.111453 21.3885 0.310684 21.5685L2.11231 23.6143L2.15515 23.6572C2.47434 23.9699 2.9799 23.9892 3.32051 23.7L24.1429 6.23054C24.4493 5.97347 24.8949 5.97347 25.2012 6.23054L45.9808 23.6616C46.1565 23.8094 46.3729 23.8844 46.5892 23.8844C46.8056 23.8844 47.022 23.8094 47.1976 23.6616L49.0442 21.5665C49.2413 21.3866 49.3549 21.1317 49.3549 20.8596C49.3549 20.579 49.2327 20.3133 49.0292 20.1398L49.0286 20.1391Z" fill="white"/>
</svg>
