<svg width="75" height="53" viewBox="0 0 75 53" fill="none" xmlns="http://www.w3.org/2000/svg">
<path d="M20.8992 9.46428L56.1957 0L73.844 14.6696L38.5475 24.1339L20.8992 9.46428Z" fill="#86CA21"/>
<path d="M37.1542 26.5001V53.0001H24.6147V35.018H13.004V53.0001H0V26.5001L18.4769 10.884L37.1542 26.5001Z" fill="#DA67A7"/>
<rect x="14.3973" y="36.9104" width="8.82413" height="16.0893" fill="#6EA9E5"/>
<path d="M74.7729 43.5356L39.4764 52.9999V26.4999L74.7729 17.0356V43.5356ZM49.2294 35.491V38.3303L52.016 37.8571V35.0178L49.2294 35.491ZM52.4804 34.5446V37.3839L55.267 36.9106V34.0714L52.4804 34.5446ZM49.2294 32.1785V35.0178L52.016 34.5446V31.7053L49.2294 32.1785ZM52.4804 31.2321V34.0714L55.267 33.5981V30.7589L52.4804 31.2321ZM62.6978 31.2321V34.0714L65.4844 33.5981V30.7589L62.6978 31.2321ZM65.9488 30.2856V33.1249L68.7354 32.6517V29.8124L65.9488 30.2856ZM62.6978 27.9196V30.7589L65.4844 30.2856V27.4464L62.6978 27.9196ZM65.9488 26.9731V29.8124L68.7354 29.3392V26.4999L65.9488 26.9731Z" fill="#6EA9E5"/>
</svg>
